<mxfile host="app.diagrams.net" agent="Mozilla/5.0 (X11; Linux x86_64; rv:131.0) Gecko/20100101 Firefox/131.0" version="24.7.17">
  <diagram id="C5RBs43oDa-KdzZeNtuy" name="Page-1">
    <mxGraphModel dx="1192" dy="530" grid="1" gridSize="10" guides="1" tooltips="1" connect="1" arrows="1" fold="1" page="1" pageScale="1" pageWidth="827" pageHeight="1169" math="0" shadow="0">
      <root>
        <mxCell id="WIyWlLk6GJQsqaUBKTNV-0" />
        <mxCell id="WIyWlLk6GJQsqaUBKTNV-1" parent="WIyWlLk6GJQsqaUBKTNV-0" />
        <mxCell id="wpFpBT99-KxJ_QZ6yb1I-0" value="開始" style="html=1;dashed=0;whiteSpace=wrap;shape=mxgraph.dfd.start" parent="WIyWlLk6GJQsqaUBKTNV-1" vertex="1">
          <mxGeometry x="-50" width="100" height="40" as="geometry" />
        </mxCell>
        <mxCell id="wpFpBT99-KxJ_QZ6yb1I-1" value="終了" style="html=1;dashed=0;whiteSpace=wrap;shape=mxgraph.dfd.start" parent="WIyWlLk6GJQsqaUBKTNV-1" vertex="1">
          <mxGeometry x="-50" y="560" width="100" height="40" as="geometry" />
        </mxCell>
        <mxCell id="uORbJ-g-QkJ-AnzBy6FT-0" value="&lt;div&gt;「被乗数と乗数を&lt;/div&gt;&lt;div&gt;入力してください」&lt;/div&gt;" style="shape=display;whiteSpace=wrap;html=1;" vertex="1" parent="WIyWlLk6GJQsqaUBKTNV-1">
          <mxGeometry x="-80" y="80" width="160" height="80" as="geometry" />
        </mxCell>
        <mxCell id="uORbJ-g-QkJ-AnzBy6FT-9" style="edgeStyle=orthogonalEdgeStyle;rounded=0;orthogonalLoop=1;jettySize=auto;html=1;exitX=0;exitY=0;exitDx=80;exitDy=80;exitPerimeter=0;entryX=0.496;entryY=0.202;entryDx=0;entryDy=0;entryPerimeter=0;" edge="1" parent="WIyWlLk6GJQsqaUBKTNV-1" source="uORbJ-g-QkJ-AnzBy6FT-1" target="uORbJ-g-QkJ-AnzBy6FT-4">
          <mxGeometry relative="1" as="geometry" />
        </mxCell>
        <mxCell id="uORbJ-g-QkJ-AnzBy6FT-1" value="&lt;div&gt;「乗数:」&lt;/div&gt;" style="shape=display;whiteSpace=wrap;html=1;" vertex="1" parent="WIyWlLk6GJQsqaUBKTNV-1">
          <mxGeometry x="-180" y="220" width="160" height="80" as="geometry" />
        </mxCell>
        <mxCell id="uORbJ-g-QkJ-AnzBy6FT-11" style="edgeStyle=orthogonalEdgeStyle;rounded=0;orthogonalLoop=1;jettySize=auto;html=1;exitX=0;exitY=0;exitDx=80;exitDy=80;exitPerimeter=0;entryX=0.503;entryY=0.173;entryDx=0;entryDy=0;entryPerimeter=0;" edge="1" parent="WIyWlLk6GJQsqaUBKTNV-1" source="uORbJ-g-QkJ-AnzBy6FT-2" target="uORbJ-g-QkJ-AnzBy6FT-5">
          <mxGeometry relative="1" as="geometry" />
        </mxCell>
        <mxCell id="uORbJ-g-QkJ-AnzBy6FT-2" value="&lt;div&gt;「被乗数:」&lt;/div&gt;" style="shape=display;whiteSpace=wrap;html=1;" vertex="1" parent="WIyWlLk6GJQsqaUBKTNV-1">
          <mxGeometry x="20" y="220" width="160" height="80" as="geometry" />
        </mxCell>
        <mxCell id="uORbJ-g-QkJ-AnzBy6FT-4" value="&lt;div&gt;整数値を&lt;/div&gt;&lt;div&gt;変数aに代入&lt;br&gt;&lt;/div&gt;" style="html=1;strokeWidth=1;shape=manualInput;whiteSpace=wrap;rounded=1;size=26;arcSize=11;" vertex="1" parent="WIyWlLk6GJQsqaUBKTNV-1">
          <mxGeometry x="-160" y="320" width="120" height="80" as="geometry" />
        </mxCell>
        <mxCell id="uORbJ-g-QkJ-AnzBy6FT-5" value="&lt;div&gt;整数値を&lt;/div&gt;&lt;div&gt;変数bに代入&lt;br&gt;&lt;/div&gt;" style="html=1;strokeWidth=1;shape=manualInput;whiteSpace=wrap;rounded=1;size=26;arcSize=11;" vertex="1" parent="WIyWlLk6GJQsqaUBKTNV-1">
          <mxGeometry x="40" y="320" width="120" height="80" as="geometry" />
        </mxCell>
        <mxCell id="uORbJ-g-QkJ-AnzBy6FT-6" value="&lt;div&gt;「a x b=(a*bの演算結果)」&lt;/div&gt;" style="shape=display;whiteSpace=wrap;html=1;" vertex="1" parent="WIyWlLk6GJQsqaUBKTNV-1">
          <mxGeometry x="-80" y="460" width="160" height="80" as="geometry" />
        </mxCell>
        <mxCell id="uORbJ-g-QkJ-AnzBy6FT-7" style="edgeStyle=orthogonalEdgeStyle;rounded=0;orthogonalLoop=1;jettySize=auto;html=1;exitX=0.5;exitY=0.5;exitDx=0;exitDy=20;exitPerimeter=0;entryX=0;entryY=0;entryDx=80;entryDy=0;entryPerimeter=0;" edge="1" parent="WIyWlLk6GJQsqaUBKTNV-1" source="wpFpBT99-KxJ_QZ6yb1I-0" target="uORbJ-g-QkJ-AnzBy6FT-0">
          <mxGeometry relative="1" as="geometry" />
        </mxCell>
        <mxCell id="uORbJ-g-QkJ-AnzBy6FT-8" style="edgeStyle=orthogonalEdgeStyle;rounded=0;orthogonalLoop=1;jettySize=auto;html=1;exitX=0;exitY=0;exitDx=80;exitDy=80;exitPerimeter=0;entryX=0;entryY=0;entryDx=80;entryDy=0;entryPerimeter=0;" edge="1" parent="WIyWlLk6GJQsqaUBKTNV-1" source="uORbJ-g-QkJ-AnzBy6FT-0" target="uORbJ-g-QkJ-AnzBy6FT-1">
          <mxGeometry relative="1" as="geometry">
            <Array as="points">
              <mxPoint y="180" />
              <mxPoint x="-100" y="180" />
            </Array>
          </mxGeometry>
        </mxCell>
        <mxCell id="uORbJ-g-QkJ-AnzBy6FT-10" style="edgeStyle=orthogonalEdgeStyle;rounded=0;orthogonalLoop=1;jettySize=auto;html=1;exitX=0.5;exitY=1;exitDx=0;exitDy=0;entryX=0;entryY=0;entryDx=80;entryDy=0;entryPerimeter=0;" edge="1" parent="WIyWlLk6GJQsqaUBKTNV-1" source="uORbJ-g-QkJ-AnzBy6FT-4" target="uORbJ-g-QkJ-AnzBy6FT-2">
          <mxGeometry relative="1" as="geometry">
            <Array as="points">
              <mxPoint x="-100" y="420" />
              <mxPoint y="420" />
              <mxPoint y="200" />
              <mxPoint x="100" y="200" />
            </Array>
          </mxGeometry>
        </mxCell>
        <mxCell id="uORbJ-g-QkJ-AnzBy6FT-12" style="edgeStyle=orthogonalEdgeStyle;rounded=0;orthogonalLoop=1;jettySize=auto;html=1;exitX=0.5;exitY=1;exitDx=0;exitDy=0;entryX=0;entryY=0;entryDx=80;entryDy=0;entryPerimeter=0;" edge="1" parent="WIyWlLk6GJQsqaUBKTNV-1" source="uORbJ-g-QkJ-AnzBy6FT-5" target="uORbJ-g-QkJ-AnzBy6FT-6">
          <mxGeometry relative="1" as="geometry">
            <Array as="points">
              <mxPoint x="100" y="440" />
              <mxPoint y="440" />
            </Array>
          </mxGeometry>
        </mxCell>
        <mxCell id="uORbJ-g-QkJ-AnzBy6FT-13" style="edgeStyle=orthogonalEdgeStyle;rounded=0;orthogonalLoop=1;jettySize=auto;html=1;exitX=0;exitY=0;exitDx=80;exitDy=80;exitPerimeter=0;entryX=0.5;entryY=0.5;entryDx=0;entryDy=-20;entryPerimeter=0;" edge="1" parent="WIyWlLk6GJQsqaUBKTNV-1" source="uORbJ-g-QkJ-AnzBy6FT-6" target="wpFpBT99-KxJ_QZ6yb1I-1">
          <mxGeometry relative="1" as="geometry" />
        </mxCell>
      </root>
    </mxGraphModel>
  </diagram>
</mxfile>
